<svg xmlns="http://www.w3.org/2000/svg" xmlns:xlink="http://www.w3.org/1999/xlink" version="1.1" x="0px" y="0px" viewBox="0 0 100 125" style="enable-background:new 0 0 100 100;" xml:space="preserve"><path d="M74.2,25.8c-7.8-7.8-20.4-7.8-28.1,0c-5.5,5.5-7.1,13.3-4.9,20.2l-1.8,1.8c-0.3,0.3-0.3,0.7,0,1l1.2,1.2L20.2,70.3  C20.1,70.5,20,70.8,20,71l0.4,2.3c0.1,0.6,0.9,0.9,1.3,0.4L42.4,53c0.3-0.3,0.8-0.3,1.1,0c0.3,0.3,0.3,0.8,0,1.1L21.2,76.4  C21,76.6,21,76.9,21,77.1l0.2,1.1c0.1,0.3,0.3,0.6,0.6,0.6L29,80c0.2,0,0.5,0,0.7-0.2l2.7-2.7c0.1-0.1,0.3-0.2,0.6-0.2h3.9  c0.2,0,0.4-0.1,0.6-0.2l4.4-4.4c0.2-0.2,0.3-0.4,0.2-0.7L41.2,67c0-0.2,0-0.5,0.2-0.7l0.8-0.8c0.2-0.2,0.5-0.3,0.7-0.2l2.7,0.6  c0.5,0.1,1-0.3,0.9-0.9l-0.2-1.4c0-0.2,0-0.5,0.2-0.7l3.4-3.4l1.2,1.2c0.3,0.3,0.7,0.3,1,0l1.8-1.8c6.9,2.2,14.7,0.6,20.2-4.9  C81.9,46.2,81.9,33.6,74.2,25.8z M70.7,34.1c-1.3,1.3-3.5,1.3-4.8,0s-1.3-3.5,0-4.8c1.3-1.3,3.5-1.3,4.8,0  C72,30.6,72,32.8,70.7,34.1z"/><text x="0" y="115" fill="#000000" font-size="5px" font-weight="bold" font-family="'Helvetica Neue', Helvetica, Arial-Unicode, Arial, Sans-serif">Created by Mello</text><text x="0" y="120" fill="#000000" font-size="5px" font-weight="bold" font-family="'Helvetica Neue', Helvetica, Arial-Unicode, Arial, Sans-serif">from the Noun Project</text></svg>