<svg xmlns="http://www.w3.org/2000/svg" xmlns:xlink="http://www.w3.org/1999/xlink" version="1.1" baseProfile="tiny" x="0px" y="0px" viewBox="0 0 100 125" xml:space="preserve"><g><path d="M69.781,29.153c-1.834-0.703-5.592-3.337-7.929-4.591c-2.338-1.25-5.726-1.872-9.429-0.163   c-0.907,0.418-1.872,0.924-2.866,1.488l-1.688-1.662c-0.092-0.116-2.334-2.828-6.043-1.874c-1.691,0.435-3.208,1.284-4.676,2.102   c-1.236,0.69-2.404,1.343-3.53,1.661c-0.43,0.118-0.833,0.241-1.212,0.353c-1.93,0.571-3.095,0.911-4.602,0.621   c-1.466-0.282-2.105-0.515-2.105-0.515c-0.629-0.245-1.344,0.021-1.662,0.614L12.136,49.558c-0.234,0.437-0.204,0.973,0.078,1.381   c0.091,0.13,2.243,3.248,4.214,5.022c3.386,3.047,5.319,4.113,5.399,4.156l0.087,0.061c-0.584,1.441-0.292,3.156,0.876,4.329   c1.384,1.382,3.524,1.533,5.081,0.468c-1.546,1.631-1.529,4.201,0.068,5.796c1.625,1.628,4.26,1.628,5.884,0l0.213-0.213   c-1.309,1.641-1.223,4.03,0.296,5.551c1.629,1.629,4.273,1.629,5.905,0l2.252-2.252c-1.164,1.51-1.07,3.671,0.314,5.054   c1.5,1.503,3.935,1.503,5.438,0l2.973-2.974l4.26,3.271c0.131,0.115,1.256,1.099,2.953,1.099c0.09,0,0.178-0.005,0.267-0.014   c1.414-0.082,2.731-0.826,3.921-2.202c1.065-1.235,1.479-2.547,1.535-3.74c0.584,0.233,1.369,0.481,2.28,0.481   c1.138,0,2.463-0.385,3.781-1.663c1.092-1.057,1.53-2.247,1.599-3.396c0.764,0.36,1.699,0.631,2.748,0.631   c1.092,0,2.3-0.287,3.546-1.062c1.72-1.064,2.747-2.345,3.052-3.814c0.516-2.005-0.817-4.344-1.707-5.615   c0.953-0.792,2.092-1.805,3.1-2.885c3.102-3.335,4.422-6.263,4.422-6.263L74.954,27.902C74.954,27.902,71.95,29.988,69.781,29.153z    M78.699,64.688c-0.161,0.7-0.959,1.741-2,2.386c-2.507,1.553-4.382-0.067-4.565-0.239l-4.091-4.006l-0.01,0.01l-5.457-5.809   c-0.505-0.537-1.353-0.562-1.889-0.059c-0.537,0.502-0.561,1.351-0.059,1.885l7.704,8.206c0.263,0.361,1.7,2.563,0.019,4.193   c-1.368,1.321-2.477,0.97-3.686,0.412c-0.366-0.169-1.127-0.825-1.865-1.544l-7.15-7.615c-0.505-0.539-1.352-0.563-1.888-0.06   c-0.54,0.501-0.563,1.35-0.061,1.892l6.176,6.567c0.029,0.04,0.042,0.089,0.077,0.127c0.148,0.161,0.544,0.58,1.042,1.063   l0.051,0.054l-0.061,0.04c0.012,0.02,1.354,2.125-0.397,4.156c-1.708,1.98-2.986,1.169-3.335,0.87l-4.303-3.336   c0.7-1.433,0.471-3.208-0.722-4.4c-1.381-1.38-3.541-1.476-5.048-0.32l1.364-1.364c1.628-1.631,1.628-4.273,0-5.906   c-1.631-1.63-4.276-1.63-5.908,0l-1.991,1.991c1.293-1.633,1.206-4.005-0.304-5.516c-1.625-1.618-4.261-1.618-5.882,0l-2.147,2.148   c0.679-1.477,0.423-3.273-0.793-4.488c-1.562-1.563-4.092-1.563-5.653,0l-2.235,2.054l-0.528-0.311   c-0.017-0.009-1.736-0.962-4.894-3.797c-1.231-1.109-2.623-2.928-3.33-3.896l11.007-20.674c0.373,0.094,0.841,0.199,1.417,0.309   c2.144,0.411,3.784-0.073,5.859-0.686c0.371-0.109,0.761-0.223,1.179-0.339c1.43-0.405,2.792-1.165,4.111-1.903   c1.318-0.734,2.682-1.496,4.039-1.848c2.018-0.516,3.258,0.918,3.31,0.977l1.349,1.416c-6.548,4.105-13.42,9.755-13.42,9.755   s-3.59,2.502-1.587,5.342c2.083,2.949,5.008,0.914,5.008,0.914l12.516-6.842c0,0,2.066-0.79,3.171-0.668   c1.503,0.168,2.42,1.168,2.42,1.168l21.511,23.864C77.959,62.119,78.857,64.003,78.699,64.688z"/><path d="M98.84,46.486L85.588,21.782c-0.351-0.652-1.159-0.895-1.809-0.547l-5.124,2.705c-0.649,0.349-0.894,1.16-0.546,1.809   l13.256,24.705c0.349,0.653,1.158,0.895,1.809,0.549l5.122-2.706C98.945,47.946,99.19,47.137,98.84,46.486z"/><path d="M21.145,22.584l-5.107-2.738c-0.652-0.342-1.461-0.092-1.805,0.559l-13.078,24.8c-0.345,0.653-0.094,1.459,0.557,1.806   l5.107,2.736c0.653,0.343,1.46,0.092,1.804-0.562L21.702,24.39C22.047,23.735,21.797,22.929,21.145,22.584z"/></g><text x="0" y="115" fill="#000000" font-size="5px" font-weight="bold" font-family="'Helvetica Neue', Helvetica, Arial-Unicode, Arial, Sans-serif">Created by Wing</text><text x="0" y="120" fill="#000000" font-size="5px" font-weight="bold" font-family="'Helvetica Neue', Helvetica, Arial-Unicode, Arial, Sans-serif">from the Noun Project</text></svg>