<svg xmlns="http://www.w3.org/2000/svg" data-name="Layer 1" viewBox="0 0 64 80" x="0px" y="0px"><title>Video_15</title><path d="M32,0A32,32,0,1,0,64,32,32,32,0,0,0,32,0ZM45.89,33.79l-22,11A2,2,0,0,1,22,44.7,2,2,0,0,1,21,43V21A2,2,0,0,1,22,19.3a2,2,0,0,1,1.94-.09l22,11a2,2,0,0,1,0,3.58Z"/><text x="0" y="79" fill="#000000" font-size="5px" font-weight="bold" font-family="'Helvetica Neue', Helvetica, Arial-Unicode, Arial, Sans-serif">Created by Mello</text><text x="0" y="84" fill="#000000" font-size="5px" font-weight="bold" font-family="'Helvetica Neue', Helvetica, Arial-Unicode, Arial, Sans-serif">from the Noun Project</text></svg>