<svg xmlns="http://www.w3.org/2000/svg" xmlns:xlink="http://www.w3.org/1999/xlink" version="1.1" x="0px" y="0px" viewBox="0 0 208 220" enable-background="new 0 0 208 176" xml:space="preserve"><g><circle cx="98.7617188" cy="120.5170898" r="14.5893555"/><path d="M139.3310547,108.8554688h-9.7802734c-0.2451172-0.6289063-0.4921875-1.2607422-0.7724609-1.8769531l6.9033203-6.9101563   c2.2392578-2.2197266,2.2392578-5.8447266,0-8.0830078l-8.3857422-8.3950195c-2.2392578-2.2392578-5.8554688-2.2392578-8.0947266,0   l-6.9101563,6.9116211c-0.6152344-0.2792969-1.2373047-0.5351563-1.8769531-0.7695313V79.940918   c0-3.1494141-2.5576172-5.7045898-5.7128906-5.7045898H92.8188477c-3.1567383,0-5.7143555,2.5551758-5.7143555,5.7045898v9.7905273   c-0.6323242,0.2392578-1.2558594,0.4912109-1.8769531,0.7695313l-6.9106445-6.9106445   c-2.2294922-2.2392578-5.847168-2.2392578-8.0844727,0l-8.3959961,8.3950195c-2.2290039,2.2382813-2.2290039,5.8623047,0,8.0830078   l6.9130859,6.9101563c-0.2797852,0.6162109-0.534668,1.2470703-0.7724609,1.8769531H58.1875   c-3.1484375,0-5.7075195,2.5605469-5.7075195,5.7236328v11.8720703c0,3.1640625,2.5595703,5.7236328,5.7075195,5.7236328h9.7895508   c0.237793,0.6328125,0.4926758,1.2626953,0.7631836,1.8691406l-6.9116211,6.9179688   c-2.2285156,2.2236328-2.2285156,5.8457031,0.0078125,8.0859375l8.3959961,8.3955078   c2.2373047,2.2402344,5.8457031,2.2402344,8.0844727,0l6.9106445-6.9052734   c0.6162109,0.2714844,1.246582,0.5253906,1.8769531,0.7636719v9.7890625c0,3.1523438,2.559082,5.7060547,5.715332,5.7060547   h11.8793945c3.1572266,0,5.7148438-2.5537109,5.7148438-5.7060547v-9.7890625   c0.6396484-0.2353516,1.2617188-0.4921875,1.8857422-0.7636719l6.9111328,6.9052734   c2.2294922,2.2402344,5.8457031,2.2402344,8.0849609,0l8.3857422-8.3955078c2.2460938-2.2402344,2.2460938-5.8535156,0-8.0859375   l-6.9033203-6.9179688c0.2802734-0.6064453,0.5253906-1.2392578,0.7724609-1.8691406h9.7802734   c3.1572266,0,5.7138672-2.5576172,5.7138672-5.7236328v-11.8720703   C145.0449219,111.4169922,142.4882813,108.8554688,139.3310547,108.8554688z M98.7617188,145.4931641   c-13.7929688,0-24.9760742-11.1826172-24.9760742-24.9755859c0-13.7958984,11.1831055-24.9775391,24.9760742-24.9775391   c13.7949219,0,24.9755859,11.1816406,24.9755859,24.9775391   C123.7373047,134.3105469,112.5566406,145.4931641,98.7617188,145.4931641z"/><circle cx="98.7617188" cy="38.987793" r="9.8647461"/><path d="M71.3271484,46.8706055h6.6186523c0.1611328,0.4282227,0.3339844,0.8535156,0.5161133,1.2636719l-4.6728516,4.6777344   c-1.5068359,1.503418-1.5068359,3.9526367,0.0058594,5.4672852l5.675293,5.6772461   c1.5141602,1.5131836,3.9526367,1.5131836,5.4677734,0l4.6728516-4.6689453   c0.4169922,0.1826172,0.8417969,0.3554688,1.269043,0.5161133v6.6191406c0,2.1308594,1.7299805,3.8579102,3.8637695,3.8579102   h8.0336914c2.1337891,0,3.8632813-1.7270508,3.8632813-3.8579102v-6.6191406   c0.4326172-0.159668,0.8535156-0.3334961,1.2753906-0.5161133l4.6728516,4.6689453   c1.5068359,1.5131836,3.953125,1.5131836,5.4658203,0l5.6708984-5.6772461c1.5185547-1.5146484,1.5185547-3.9575195,0-5.4672852   l-4.6679688-4.6777344c0.1894531-0.4101563,0.3554688-0.8378906,0.5234375-1.2636719h6.6113281   c2.1347656,0,3.8652344-1.7294922,3.8652344-3.8706055v-8.0268555c0-2.1391602-1.7304688-3.8701172-3.8652344-3.8701172h-6.6113281   c-0.1650391-0.4257813-0.3339844-0.8530273-0.5234375-1.269043l4.6679688-4.6728516   c1.515625-1.5014648,1.515625-3.9526367,0-5.465332l-5.6708984-5.6762695c-1.5126953-1.5141602-3.9589844-1.5141602-5.4716797,0   l-4.6728516,4.6733398c-0.4160156-0.1884766-0.8369141-0.3618164-1.2695313-0.5209961v-6.6201172   c0-2.1293945-1.7294922-3.8574219-3.8623047-3.8574219h-8.034668c-2.1352539,0-3.8637695,1.7280273-3.8637695,3.8574219v6.6201172   c-0.4272461,0.1606445-0.8500977,0.3320313-1.2700195,0.5200195l-4.671875-4.6723633   c-1.5083008-1.5141602-3.9536133-1.5141602-5.4677734,0l-5.675293,5.6762695c-1.5083008,1.5126953-1.5083008,3.9638672,0,5.4643555   l4.6738281,4.6738281c-0.1889648,0.4160156-0.3618164,0.8432617-0.5229492,1.2685547h-6.6186523   c-2.1293945,0-3.859375,1.7304688-3.859375,3.8706055V43C67.4677734,45.1391602,69.1977539,46.8706055,71.3271484,46.8706055z    M98.7617188,22.0991211c9.3271484,0,16.8886719,7.5615234,16.8886719,16.8881836   c0,9.3271484-7.5615234,16.8881836-16.8886719,16.8881836s-16.8876953-7.5610352-16.8876953-16.8881836   C81.8740234,29.6606445,89.4345703,22.0991211,98.7617188,22.0991211z"/></g><text x="0" y="191" fill="#000000" font-size="5px" font-weight="bold" font-family="'Helvetica Neue', Helvetica, Arial-Unicode, Arial, Sans-serif">Created by sachin modgekar</text><text x="0" y="196" fill="#000000" font-size="5px" font-weight="bold" font-family="'Helvetica Neue', Helvetica, Arial-Unicode, Arial, Sans-serif">from the Noun Project</text></svg>