<svg xmlns="http://www.w3.org/2000/svg" data-name="Layer 1" viewBox="0 0 96 120" x="0px" y="0px"><title>Artboard 14</title><path d="M48,94A46,46,0,1,1,94,48,46.05239,46.05239,0,0,1,48,94ZM48,6A42,42,0,1,0,90,48,42.04781,42.04781,0,0,0,48,6Z"/><path d="M48,11A37,37,0,1,0,85,48,37.04192,37.04192,0,0,0,48,11ZM45.68994,54.06061a3.13817,3.13817,0,0,0,2.93024,1.67389,3.80132,3.80132,0,0,0,2.5426-.92353q1.08527-.92358,1.51941-4.2713L60,51.14575q-1.39536,9.55261-9.2403,10.62049V68H46.20154V61.76624a10.39517,10.39517,0,0,1-7.76746-4.76191A17.03972,17.03972,0,0,1,36,47.88452q0-6.34918,2.66669-10.303a9.358,9.358,0,0,1,7.53485-4.2713V28H50.7597v5.33911q8.279,1.03895,9.2403,10.505l-7.31781.43292q-.37216-5.28141-4-5.28137a3.13458,3.13458,0,0,0-3.02325,1.81817q-.91481,1.81815-.91474,6.609Q44.7442,52.3867,45.68994,54.06061Z"/><text x="0" y="111" fill="#000000" font-size="5px" font-weight="bold" font-family="'Helvetica Neue', Helvetica, Arial-Unicode, Arial, Sans-serif">Created by Adi Kurniawan</text><text x="0" y="116" fill="#000000" font-size="5px" font-weight="bold" font-family="'Helvetica Neue', Helvetica, Arial-Unicode, Arial, Sans-serif">from the Noun Project</text></svg>