<svg xmlns="http://www.w3.org/2000/svg" xmlns:xlink="http://www.w3.org/1999/xlink" version="1.1" x="0px" y="0px" viewBox="0 0 100 125" enable-background="new 0 0 100 100" xml:space="preserve"><g><g><path fill="#000000" d="M85.305,17.872h-36.48c-1.085,0-1.972-0.887-1.972-1.972v-2.92c0-1.085-0.887-1.972-1.972-1.972h-14.79    c-1.085,0-1.973,0.887-1.973,1.972v2.92c0,1.085,0,2.859,0,3.944v1.502c0,0.384,0,0.856,0,1.352h9.806    c2.238,0,4.059,1.821,4.059,4.059v2.806h36.365c2.238,0,4.06,1.821,4.06,4.059v26.78h2.896c1.085,0,1.973-0.887,1.973-1.971    V19.844C87.277,18.759,86.39,17.872,85.305,17.872z"/><path fill="#000000" d="M80.321,33.622c0-1.085-0.888-1.972-1.973-1.972h-36.48c-1.084,0-1.972-0.887-1.972-1.972v-2.92    c0-1.085-0.887-1.972-1.972-1.972h-14.79c-1.085,0-1.972,0.887-1.972,1.972v2.92c0,1.085,0,2.859,0,3.944v1.502    c0,0.384,0,0.856,0,1.352h9.805c2.238,0,4.059,1.821,4.059,4.059v2.806h36.365c2.238,0,4.06,1.82,4.06,4.059v26.78h2.897    c1.085,0,1.973-0.887,1.973-1.971V33.622z"/><path fill="#000000" d="M73.364,47.4c0-1.084-0.888-1.972-1.973-1.972h-36.48c-1.084,0-1.972-0.888-1.972-1.973v-2.92    c0-1.085-0.887-1.972-1.972-1.972h-14.79c-1.085,0-1.972,0.887-1.972,1.972v2.92c0,1.085,0,2.86,0,3.944v1.502    c0,1.084,0,2.86,0,3.944v33.141c0,1.084,0.887,1.973,1.972,1.973h55.213c1.085,0,1.973-0.889,1.973-1.973V47.4z"/></g></g><text x="0" y="115" fill="#000000" font-size="5px" font-weight="bold" font-family="'Helvetica Neue', Helvetica, Arial-Unicode, Arial, Sans-serif">Created by Sarah JOY</text><text x="0" y="120" fill="#000000" font-size="5px" font-weight="bold" font-family="'Helvetica Neue', Helvetica, Arial-Unicode, Arial, Sans-serif">from the Noun Project</text></svg>